<svg xmlns="http://www.w3.org/2000/svg" xmlns:xlink="http://www.w3.org/1999/xlink" width="1022.4" height="1645.25" viewBox="0 0 1022.4 1645.25">
  <defs>
    <clipPath id="clip-path">
      <rect id="shop" width="1022.4" height="1645.25" transform="translate(574 298.07)" fill="#eb2f36"/>
    </clipPath>
  </defs>
  <g id="Mask_Group_132" data-name="Mask Group 132" transform="translate(-574 -298.07)" clip-path="url(#clip-path)">
    <g id="Group_625" data-name="Group 625" transform="translate(785.578 360.125)">
      <g id="Group_406" data-name="Group 406" transform="translate(621.664)">
        <g id="Group_405" data-name="Group 405">
          <path id="Path_21652" data-name="Path 21652" d="M379.826,28.593A90.366,90.366,0,0,0,223.7,96.266l4.534,69.675h0c1.808,27.536,16.355,52.736,38.912,67.394a85.889,85.889,0,0,0,93.457,0c22.558-14.658,37.1-39.858,38.885-67.394l4.534-69.675A90.468,90.468,0,0,0,379.826,28.593ZM347.451,92.566l-4.534,69.647c-.64,9.763-5.563,18.58-13.184,23.531a29.029,29.029,0,0,1-31.653,0c-7.621-4.951-12.544-13.74-13.184-23.531l-4.534-69.647a33.619,33.619,0,1,1,67.089,0Z" transform="translate(-223.51 0)" fill="rgba(0,0,0,0.25)"/>
        </g>
      </g>
      <g id="Group_408" data-name="Group 408" transform="translate(487.253 254.224)">
        <g id="Group_407" data-name="Group 407">
          <path id="Path_21653" data-name="Path 21653" d="M624.345,250.944l-7.871-43.5C606.1,150.255,560.789,104.584,503.713,93.848a142.86,142.86,0,0,0-26.2-2.448H453.786a28.289,28.289,0,0,0-20.054,8.316,47.676,47.676,0,0,1-67.478,0A28.407,28.407,0,0,0,346.2,91.4H322.474a142.861,142.861,0,0,0-26.2,2.448C239.2,104.584,193.86,150.255,183.513,207.442l-7.872,43.5a28.368,28.368,0,0,0,27.926,33.405H596.5a28.254,28.254,0,0,0,27.842-33.405ZM237.473,227.635l1.836-10.1a84.49,84.49,0,0,1,83.11-69.425h13.017a104.55,104.55,0,0,0,129.031,0h13.017a84.49,84.49,0,0,1,83.11,69.425l1.836,10.1Z" transform="translate(-175.186 -91.4)" fill="rgba(0,0,0,0.25)"/>
        </g>
      </g>
      <g id="Group_410" data-name="Group 410" transform="translate(621.664 974.423)">
        <g id="Group_409" data-name="Group 409">
          <path id="Path_21654" data-name="Path 21654" d="M379.826,378.923A90.366,90.366,0,0,0,223.7,446.6l4.534,69.675c1.808,27.537,16.355,52.736,38.912,67.395a85.938,85.938,0,0,0,93.484,0c22.557-14.658,37.1-39.858,38.885-67.395l4.534-69.675A90.6,90.6,0,0,0,379.826,378.923ZM347.451,442.9l-4.534,69.675c-.64,9.763-5.563,18.552-13.184,23.5a29.031,29.031,0,0,1-31.653,0c-7.621-4.951-12.544-13.741-13.184-23.5L280.362,442.9a33.619,33.619,0,1,1,67.089,0Z" transform="translate(-223.51 -350.33)" fill="rgba(0,0,0,0.25)"/>
        </g>
      </g>
      <g id="Group_412" data-name="Group 412" transform="translate(487.254 1228.675)">
        <g id="Group_411" data-name="Group 411">
          <path id="Path_21655" data-name="Path 21655" d="M624.344,601.284l-7.871-43.5C606.1,500.6,560.789,454.923,503.713,444.188a142.646,142.646,0,0,0-26.2-2.448H453.786a28.407,28.407,0,0,0-20.054,8.316,47.76,47.76,0,0,1-67.478,0A28.408,28.408,0,0,0,346.2,441.74H322.474a142.87,142.87,0,0,0-26.2,2.448C239.2,454.923,193.86,500.6,183.513,557.782l-7.871,43.5a28.375,28.375,0,0,0,27.926,33.433H596.5a28.261,28.261,0,0,0,27.842-33.433ZM237.473,577.948l1.808-10.069a84.491,84.491,0,0,1,83.11-69.425h13.045a104.665,104.665,0,0,0,129,0h13.045a84.491,84.491,0,0,1,83.11,69.425l1.836,10.1H237.473Z" transform="translate(-175.186 -441.74)" fill="rgba(0,0,0,0.25)"/>
        </g>
      </g>
      <g id="Group_414" data-name="Group 414" transform="translate(134.472 487.226)">
        <g id="Group_413" data-name="Group 413">
          <path id="Path_21656" data-name="Path 21656" d="M204.663,203.763A90.367,90.367,0,0,0,48.541,271.436l4.534,69.675c1.808,27.536,16.327,52.736,38.885,67.394a85.936,85.936,0,0,0,93.484,0c22.558-14.658,37.1-39.858,38.885-67.394l4.534-69.675A90.688,90.688,0,0,0,204.663,203.763Zm-32.4,63.973-4.534,69.675c-.64,9.763-5.563,18.552-13.184,23.5a29.03,29.03,0,0,1-31.653,0c-7.621-4.951-12.544-13.741-13.184-23.5l-4.534-69.675a33.619,33.619,0,1,1,67.088,0Z" transform="translate(-48.352 -175.17)" fill="rgba(0,0,0,0.25)"/>
        </g>
      </g>
      <g id="Group_416" data-name="Group 416" transform="translate(0 741.45)">
        <g id="Group_415" data-name="Group 415">
          <path id="Path_21657" data-name="Path 21657" d="M449.192,426.114l-7.871-43.5c-10.375-57.187-55.685-102.858-112.76-113.594a142.634,142.634,0,0,0-26.2-2.448H278.634a28.406,28.406,0,0,0-20.054,8.317,47.761,47.761,0,0,1-67.478,0,28.406,28.406,0,0,0-20.054-8.317H147.322A141.24,141.24,0,0,0,8.333,382.584l-7.871,43.5a28.375,28.375,0,0,0,27.926,33.433H421.322a28.292,28.292,0,0,0,27.87-33.405ZM62.321,402.805l1.836-10.1a84.528,84.528,0,0,1,83.137-69.425h13.017a104.51,104.51,0,0,0,129,0h13.017a84.528,84.528,0,0,1,83.137,69.425l1.836,10.1Z" transform="translate(-0.006 -266.57)" fill="rgba(0,0,0,0.25)"/>
        </g>
      </g>
      <g id="Group_418" data-name="Group 418" transform="translate(1108.896 487.198)">
        <g id="Group_417" data-name="Group 417">
          <path id="Path_21658" data-name="Path 21658" d="M554.993,203.753a90.366,90.366,0,0,0-156.122,67.672L403.4,341.1c1.808,27.536,16.327,52.736,38.884,67.394a85.936,85.936,0,0,0,93.484,0c22.557-14.658,37.1-39.858,38.884-67.394l4.534-69.675A90.619,90.619,0,0,0,554.993,203.753Zm-32.376,64-4.534,69.675c-.639,9.763-5.563,18.552-13.184,23.5a29.028,29.028,0,0,1-31.653,0c-7.621-4.951-12.544-13.74-13.183-23.5l-4.534-69.675a33.621,33.621,0,1,1,67.089,0Z" transform="translate(-398.682 -175.16)" fill="rgba(0,0,0,0.25)"/>
        </g>
      </g>
      <g id="Group_420" data-name="Group 420" transform="translate(974.423 741.422)">
        <g id="Group_419" data-name="Group 419">
          <path id="Path_21659" data-name="Path 21659" d="M799.55,426.131l-7.9-43.529c-10.375-57.187-55.685-102.858-112.759-113.594a142.861,142.861,0,0,0-26.2-2.448H628.936a28.406,28.406,0,0,0-20.055,8.316,47.76,47.76,0,0,1-67.478,0,28.407,28.407,0,0,0-20.055-8.316H497.624a142.859,142.859,0,0,0-26.2,2.448C414.348,279.744,369.01,325.415,358.663,382.6l-7.871,43.5a28.375,28.375,0,0,0,27.926,33.433H771.624a28.368,28.368,0,0,0,27.926-33.405ZM412.679,402.823l1.836-10.1A84.528,84.528,0,0,1,497.652,323.3h13.017a104.59,104.59,0,0,0,129.059,0h13.017a84.49,84.49,0,0,1,83.109,69.425l1.836,10.1Z" transform="translate(-350.336 -266.56)" fill="rgba(0,0,0,0.25)"/>
        </g>
      </g>
      <g id="Group_422" data-name="Group 422" transform="translate(241.618 163.709)">
        <g id="Group_421" data-name="Group 421">
          <path id="Path_21660" data-name="Path 21660" d="M409.955,78.139a28.357,28.357,0,0,0-35.964-17.773C261.621,98.388,161.545,172.681,92.175,269.559A28.378,28.378,0,0,0,138.32,302.6c62.5-87.31,152.673-154.231,253.862-188.471A28.443,28.443,0,0,0,409.955,78.139Z" transform="translate(-86.874 -58.858)" fill="rgba(0,0,0,0.25)"/>
        </g>
      </g>
      <g id="Group_424" data-name="Group 424" transform="translate(949.459 203.988)">
        <g id="Group_423" data-name="Group 423">
          <path id="Path_21661" data-name="Path 21661" d="M569.938,243.733A577.863,577.863,0,0,0,383.58,76.958a28.367,28.367,0,0,0-27.7,49.51A520.694,520.694,0,0,1,523.821,276.749a28.358,28.358,0,0,0,46.116-33.016Z" transform="translate(-341.361 -73.339)" fill="rgba(0,0,0,0.25)"/>
        </g>
      </g>
      <g id="Group_426" data-name="Group 426" transform="translate(858.758 163.682)">
        <g id="Group_425" data-name="Group 425">
          <path id="Path_21662" data-name="Path 21662" d="M360.844,65.53c-4.812-1.78-9.735-3.532-14.63-5.174a28.366,28.366,0,0,0-18.191,53.737c4.395,1.5,8.845,3.06,13.184,4.673A28.372,28.372,0,1,0,360.844,65.53Z" transform="translate(-308.752 -58.848)" fill="rgba(0,0,0,0.25)"/>
        </g>
      </g>
      <g id="Group_428" data-name="Group 428" transform="translate(241.59 972.778)">
        <g id="Group_427" data-name="Group 427">
          <path id="Path_21663" data-name="Path 21663" d="M392.172,550.063C290.983,515.823,200.809,448.9,138.31,361.592a28.369,28.369,0,1,0-46.144,33.016c69.369,96.878,169.446,171.17,281.816,209.193a28.086,28.086,0,0,0,9.1,1.5,28.369,28.369,0,0,0,9.1-55.239Z" transform="translate(-86.864 -349.738)" fill="rgba(0,0,0,0.25)"/>
        </g>
      </g>
      <g id="Group_430" data-name="Group 430" transform="translate(858.745 972.794)">
        <g id="Group_429" data-name="Group 429">
          <path id="Path_21664" data-name="Path 21664" d="M621.474,355.046a28.368,28.368,0,0,0-39.58,6.564c-62.5,87.31-152.673,154.231-253.862,188.471a28.367,28.367,0,1,0,18.191,53.738c113.983-38.551,211.446-110.9,281.816-209.192A28.369,28.369,0,0,0,621.474,355.046Z" transform="translate(-308.747 -349.744)" fill="rgba(0,0,0,0.25)"/>
        </g>
      </g>
    </g>
  </g>
</svg>
