<svg xmlns="http://www.w3.org/2000/svg" width="158.375" height="158.104" viewBox="0 0 158.375 158.104">
  <g id="Group_431" data-name="Group 431" transform="translate(-0.006)">
    <g id="Group_406" data-name="Group 406" transform="translate(69.143)">
      <g id="Group_405" data-name="Group 405">
        <path id="Path_21652" data-name="Path 21652" d="M240.895,3.18a10.05,10.05,0,0,0-17.363,7.526l.5,7.749h0a9.706,9.706,0,0,0,4.328,7.5,9.552,9.552,0,0,0,10.393,0,9.7,9.7,0,0,0,4.324-7.5l.5-7.749A10.061,10.061,0,0,0,240.895,3.18Zm-3.6,7.115-.5,7.746a3.369,3.369,0,0,1-1.466,2.617,3.228,3.228,0,0,1-3.52,0,3.364,3.364,0,0,1-1.466-2.617l-.5-7.746a3.739,3.739,0,1,1,7.461,0Z" transform="translate(-223.51 0)" fill="rgba(0,0,0,0.25)"/>
      </g>
    </g>
    <g id="Group_408" data-name="Group 408" transform="translate(54.194 28.273)">
      <g id="Group_407" data-name="Group 407">
        <path id="Path_21653" data-name="Path 21653" d="M225.138,109.143l-.875-4.838A15.7,15.7,0,0,0,208.808,91.4H206.17a3.146,3.146,0,0,0-2.23.925,5.3,5.3,0,0,1-7.5,0,3.159,3.159,0,0,0-2.23-.925h-2.639a15.7,15.7,0,0,0-15.454,12.905l-.875,4.838a3.155,3.155,0,0,0,3.106,3.715h43.7a3.142,3.142,0,0,0,3.1-3.715Zm-43.025-2.592.2-1.123a9.4,9.4,0,0,1,9.243-7.721h1.448a11.627,11.627,0,0,0,14.35,0h1.448a9.4,9.4,0,0,1,9.243,7.721l.2,1.123Z" transform="translate(-175.186 -91.4)" fill="rgba(0,0,0,0.25)"/>
      </g>
    </g>
    <g id="Group_410" data-name="Group 410" transform="translate(69.143 108.367)">
      <g id="Group_409" data-name="Group 409">
        <path id="Path_21654" data-name="Path 21654" d="M240.895,353.51a10.05,10.05,0,0,0-17.363,7.526l.5,7.749a9.706,9.706,0,0,0,4.328,7.5,9.557,9.557,0,0,0,10.4,0,9.7,9.7,0,0,0,4.324-7.5l.5-7.749A10.076,10.076,0,0,0,240.895,353.51Zm-3.6,7.115-.5,7.749a3.363,3.363,0,0,1-1.466,2.614,3.228,3.228,0,0,1-3.52,0,3.363,3.363,0,0,1-1.466-2.614l-.5-7.749a3.739,3.739,0,1,1,7.461,0Z" transform="translate(-223.51 -350.33)" fill="rgba(0,0,0,0.25)"/>
      </g>
    </g>
    <g id="Group_412" data-name="Group 412" transform="translate(54.195 136.643)">
      <g id="Group_411" data-name="Group 411">
        <path id="Path_21655" data-name="Path 21655" d="M225.138,459.483l-.875-4.838a15.7,15.7,0,0,0-15.454-12.905H206.17a3.159,3.159,0,0,0-2.23.925,5.311,5.311,0,0,1-7.5,0,3.159,3.159,0,0,0-2.23-.925h-2.639a15.7,15.7,0,0,0-15.454,12.905l-.875,4.838a3.156,3.156,0,0,0,3.106,3.718h43.7a3.143,3.143,0,0,0,3.1-3.718Zm-43.025-2.6.2-1.12a9.4,9.4,0,0,1,9.243-7.721h1.451a11.64,11.64,0,0,0,14.347,0h1.451a9.4,9.4,0,0,1,9.243,7.721l.2,1.123H182.113Z" transform="translate(-175.186 -441.74)" fill="rgba(0,0,0,0.25)"/>
      </g>
    </g>
    <g id="Group_414" data-name="Group 414" transform="translate(14.961 54.185)">
      <g id="Group_413" data-name="Group 413">
        <path id="Path_21656" data-name="Path 21656" d="M65.736,178.35a10.05,10.05,0,0,0-17.363,7.526l.5,7.749a9.7,9.7,0,0,0,4.324,7.5,9.557,9.557,0,0,0,10.4,0,9.7,9.7,0,0,0,4.324-7.5l.5-7.749A10.086,10.086,0,0,0,65.736,178.35Zm-3.6,7.115-.5,7.749a3.363,3.363,0,0,1-1.466,2.614,3.228,3.228,0,0,1-3.52,0,3.363,3.363,0,0,1-1.466-2.614l-.5-7.749a3.739,3.739,0,1,1,7.461,0Z" transform="translate(-48.352 -175.17)" fill="rgba(0,0,0,0.25)"/>
      </g>
    </g>
    <g id="Group_416" data-name="Group 416" transform="translate(0.006 82.458)">
      <g id="Group_415" data-name="Group 415">
        <path id="Path_21657" data-name="Path 21657" d="M49.961,284.313l-.875-4.838A15.7,15.7,0,0,0,33.631,266.57H30.993a3.159,3.159,0,0,0-2.23.925,5.312,5.312,0,0,1-7.5,0,3.159,3.159,0,0,0-2.23-.925H16.389a15.707,15.707,0,0,0-15.457,12.9L.057,284.31a3.156,3.156,0,0,0,3.106,3.718h43.7a3.146,3.146,0,0,0,3.1-3.715ZM6.936,281.721l.2-1.123a9.4,9.4,0,0,1,9.246-7.721h1.448a11.623,11.623,0,0,0,14.347,0h1.448a9.4,9.4,0,0,1,9.246,7.721l.2,1.123Z" transform="translate(-0.006 -266.57)" fill="rgba(0,0,0,0.25)"/>
      </g>
    </g>
    <g id="Group_418" data-name="Group 418" transform="translate(123.328 54.182)">
      <g id="Group_417" data-name="Group 417">
        <path id="Path_21658" data-name="Path 21658" d="M416.066,178.34a10.05,10.05,0,0,0-17.363,7.526l.5,7.749a9.7,9.7,0,0,0,4.324,7.5,9.557,9.557,0,0,0,10.4,0,9.694,9.694,0,0,0,4.324-7.5l.5-7.749A10.078,10.078,0,0,0,416.066,178.34Zm-3.6,7.118-.5,7.749a3.363,3.363,0,0,1-1.466,2.614,3.228,3.228,0,0,1-3.52,0,3.363,3.363,0,0,1-1.466-2.614l-.5-7.749a3.739,3.739,0,1,1,7.461,0Z" transform="translate(-398.682 -175.16)" fill="rgba(0,0,0,0.25)"/>
      </g>
    </g>
    <g id="Group_420" data-name="Group 420" transform="translate(108.374 82.455)">
      <g id="Group_419" data-name="Group 419">
        <path id="Path_21659" data-name="Path 21659" d="M400.294,284.306l-.878-4.841a15.7,15.7,0,0,0-15.454-12.905H381.32a3.159,3.159,0,0,0-2.23.925,5.311,5.311,0,0,1-7.5,0,3.159,3.159,0,0,0-2.23-.925h-2.639a15.7,15.7,0,0,0-15.454,12.905l-.875,4.838a3.156,3.156,0,0,0,3.106,3.718h43.7a3.155,3.155,0,0,0,3.106-3.715Zm-43.025-2.592.2-1.123a9.4,9.4,0,0,1,9.246-7.721h1.448a11.632,11.632,0,0,0,14.353,0h1.448a9.4,9.4,0,0,1,9.243,7.721l.2,1.123Z" transform="translate(-350.336 -266.56)" fill="rgba(0,0,0,0.25)"/>
      </g>
    </g>
    <g id="Group_422" data-name="Group 422" transform="translate(26.877 18.206)">
      <g id="Group_421" data-name="Group 421">
        <path id="Path_21660" data-name="Path 21660" d="M122.8,61a3.154,3.154,0,0,0-4-1.977A64.169,64.169,0,0,0,87.464,82.29,3.156,3.156,0,0,0,92.6,85.965,57.8,57.8,0,0,1,120.828,65,3.163,3.163,0,0,0,122.8,61Z" transform="translate(-86.874 -58.858)" fill="rgba(0,0,0,0.25)"/>
      </g>
    </g>
    <g id="Group_424" data-name="Group 424" transform="translate(105.597 22.686)">
      <g id="Group_423" data-name="Group 423">
        <path id="Path_21661" data-name="Path 21661" d="M366.781,92.289a64.265,64.265,0,0,0-20.725-18.547,3.155,3.155,0,0,0-3.081,5.506A57.907,57.907,0,0,1,361.653,95.96a3.154,3.154,0,0,0,5.129-3.672Z" transform="translate(-341.361 -73.339)" fill="rgba(0,0,0,0.25)"/>
      </g>
    </g>
    <g id="Group_426" data-name="Group 426" transform="translate(95.51 18.203)">
      <g id="Group_425" data-name="Group 425">
        <path id="Path_21662" data-name="Path 21662" d="M314.545,59.591c-.535-.2-1.083-.393-1.627-.575a3.155,3.155,0,0,0-2.023,5.976c.489.167.984.34,1.466.52a3.155,3.155,0,1,0,2.184-5.921Z" transform="translate(-308.752 -58.848)" fill="rgba(0,0,0,0.25)"/>
      </g>
    </g>
    <g id="Group_428" data-name="Group 428" transform="translate(26.874 108.184)">
      <g id="Group_427" data-name="Group 427">
        <path id="Path_21663" data-name="Path 21663" d="M120.818,372.017a57.8,57.8,0,0,1-28.232-20.96,3.155,3.155,0,0,0-5.132,3.672,64.169,64.169,0,0,0,31.341,23.265,3.124,3.124,0,0,0,1.012.167,3.155,3.155,0,0,0,1.012-6.143Z" transform="translate(-86.864 -349.738)" fill="rgba(0,0,0,0.25)"/>
      </g>
    </g>
    <g id="Group_430" data-name="Group 430" transform="translate(95.509 108.186)">
      <g id="Group_429" data-name="Group 429">
        <path id="Path_21664" data-name="Path 21664" d="M343.526,350.334a3.155,3.155,0,0,0-4.4.73,57.8,57.8,0,0,1-28.232,20.96A3.155,3.155,0,1,0,312.914,378a63.277,63.277,0,0,0,31.341-23.265A3.155,3.155,0,0,0,343.526,350.334Z" transform="translate(-308.747 -349.744)" fill="rgba(0,0,0,0.25)"/>
      </g>
    </g>
  </g>
</svg>
