<svg id="Group_432" data-name="Group 432" xmlns="http://www.w3.org/2000/svg" width="152.981" height="181.171" viewBox="0 0 152.981 181.171">
  <path id="Path_21666" data-name="Path 21666" d="M65.7,0A11.861,11.861,0,0,0,53.856,11.847v2.64H44.833a5.459,5.459,0,0,0-4.752,2.778h-27.4A12.7,12.7,0,0,0,0,29.95V168.489a12.7,12.7,0,0,0,12.682,12.682H59.51a2.654,2.654,0,0,0,0-5.308H12.682a7.383,7.383,0,0,1-7.374-7.374V29.946a7.383,7.383,0,0,1,7.374-7.374H39.369v5.835H14.692a3.55,3.55,0,0,0-3.546,3.546V166.479a3.55,3.55,0,0,0,3.546,3.546H116.717a3.55,3.55,0,0,0,3.546-3.546v-8.514L126.1,163.8v4.689a7.383,7.383,0,0,1-7.374,7.374H49.453a2.654,2.654,0,0,0,0,5.308h69.27a12.7,12.7,0,0,0,12.668-12.077l6.751,6.751a6.779,6.779,0,0,0,9.575,0l3.284-3.28a6.779,6.779,0,0,0,0-9.575l-19.6-19.6V87.985a2.654,2.654,0,1,0-5.308,0v50.1l-.442-.442a6.739,6.739,0,0,0-4.784-1.985l-.609-.609V117.563a39.056,39.056,0,0,0,0-19.515v-66.1a3.55,3.55,0,0,0-3.546-3.546H92.036V22.572h26.687a7.383,7.383,0,0,1,7.374,7.374V93.363a2.654,2.654,0,1,0,5.308,0V29.946a12.7,12.7,0,0,0-12.682-12.682h-27.4a5.471,5.471,0,0,0-4.752-2.781H77.55v-2.64A11.86,11.86,0,0,0,65.7,0ZM59.164,11.847a6.539,6.539,0,1,1,13.078,0v2.64H59.164Zm.29,72.451a33.237,33.237,0,1,1,23.51,56.74C53.435,141.037,38.562,105.185,59.454,84.3Zm52.009,49.475.011-.011,4.243,4.246-2.551,2.548-4.246-4.243h0C109.838,135.475,110.634,134.679,111.462,133.773Zm35.785,32.965a1.467,1.467,0,0,1,0,2.07l-3.28,3.28a1.467,1.467,0,0,1-2.07,0l-11.267-11.267h0l-14.076-14.076a1.483,1.483,0,0,1,0-2.07l3.28-3.28a1.472,1.472,0,0,1,2.07,0ZM114.955,86.276A38.658,38.658,0,0,0,65.8,73.268c-.032,0-.064,0-.092,0H29.939a2.654,2.654,0,0,0,0,5.308H57.822a38.8,38.8,0,0,0-6.529,7.236H29.939a2.654,2.654,0,1,0,0,5.308H48.2a38.475,38.475,0,0,0-2.611,7.236H29.939a2.654,2.654,0,1,0,0,5.308h14.71a38.606,38.606,0,0,0-.223,4.144c0,1.03.042,2.063.127,3.093H29.939a2.654,2.654,0,1,0,0,5.308H45.346a38.735,38.735,0,0,0,2.374,7.236H29.939a2.654,2.654,0,0,0,0,5.308H50.593a38.326,38.326,0,0,0,6.065,7.236H29.943a2.654,2.654,0,0,0,0,5.308h33.9a38.381,38.381,0,0,0,18.726,5.042h.018c.127,0,.251.007.379.007a38.292,38.292,0,0,0,21.769-6.713l6.083,6.083A6.774,6.774,0,0,0,112.8,150.5l2.158,2.158v12.063H16.45v-131H39.461a5.49,5.49,0,0,0,5.371,4.466h41.74a5.489,5.489,0,0,0,5.371-4.466h23.011ZM86.728,19.946v12.77a.161.161,0,0,1-.071.124.147.147,0,0,1-.085.032H44.833a.14.14,0,0,1-.088-.035.161.161,0,0,1-.071-.12V19.946a.164.164,0,0,1,.156-.152h41.74A.165.165,0,0,1,86.728,19.946Z" transform="translate(0 0)" fill="rgba(0,0,0,0.25)"/>
  <path id="Path_21667" data-name="Path 21667" d="M77.1,174.254a2.655,2.655,0,0,0,2.654,2.654h71.534a2.654,2.654,0,1,0,0-5.308H79.757A2.651,2.651,0,0,0,77.1,174.254Z" transform="translate(-49.818 -110.879)" fill="rgba(0,0,0,0.25)"/>
  <path id="Path_21668" data-name="Path 21668" d="M130.294,141.448h35.767a2.654,2.654,0,1,0,0-5.308H130.294a2.654,2.654,0,0,0,0,5.308Z" transform="translate(-82.475 -87.967)" fill="rgba(0,0,0,0.25)"/>
  <path id="Path_21669" data-name="Path 21669" d="M79.764,425.078H151.3a2.654,2.654,0,0,0,0-5.308H79.764a2.654,2.654,0,0,0,0,5.308Z" transform="translate(-49.825 -271.235)" fill="rgba(0,0,0,0.25)"/>
  <path id="Path_21670" data-name="Path 21670" d="M141.76,69.574a2.655,2.655,0,0,0,2.654,2.654h25.774a2.654,2.654,0,1,0,0-5.308H144.414A2.655,2.655,0,0,0,141.76,69.574Z" transform="translate(-91.598 -43.24)" fill="rgba(0,0,0,0.25)"/>
  <path id="Path_21671" data-name="Path 21671" d="M203.744,235.248a27.226,27.226,0,0,0-19.384-8.018c-24.345,0-36.606,29.564-19.384,46.782a27.232,27.232,0,0,0,19.384,8.018C208.709,282.031,220.97,252.467,203.744,235.248Zm-19.38-2.71A21.947,21.947,0,0,1,199.993,239c13.882,13.882,4.009,37.724-15.63,37.724a21.951,21.951,0,0,1-15.63-6.465C154.849,256.38,164.722,232.538,184.364,232.538Z" transform="translate(-101.4 -146.825)" fill="rgba(0,0,0,0.25)"/>
</svg>
