<svg xmlns="http://www.w3.org/2000/svg" width="182.171" height="182.171" viewBox="0 0 182.171 182.171">
  <path id="Path_21665" data-name="Path 21665" d="M162.3,0a19.889,19.889,0,0,0-19.873,19.873,19.548,19.548,0,0,0,2.418,9.473L112.284,61.9a26.327,26.327,0,0,0-32.46,0l-25.4-25.4a13.427,13.427,0,1,0-4.67,4.67l25.4,25.4a26.327,26.327,0,0,0,0,32.46L33.188,140.967a19.841,19.841,0,1,0,6.558,14.706,19.548,19.548,0,0,0-2.418-9.473l42.5-42.5a26.3,26.3,0,0,0,12.918,5.366v33.652a19.873,19.873,0,1,0,6.624,0V109.071a26.3,26.3,0,0,0,12.918-5.366l25.4,25.4a13.427,13.427,0,1,0,4.67-4.67l-25.4-25.4a26.327,26.327,0,0,0,0-32.46l32.029-32A19.859,19.859,0,1,0,162.3,0ZM36.434,29.81a6.624,6.624,0,1,1,6.624,6.624A6.644,6.644,0,0,1,36.434,29.81ZM19.873,168.922a13.249,13.249,0,1,1,13.249-13.249A13.245,13.245,0,0,1,19.873,168.922ZM109.3,162.3a13.249,13.249,0,1,1-13.249-13.249A13.245,13.245,0,0,1,109.3,162.3Zm-13.249-59.62A19.873,19.873,0,1,1,115.927,82.8,19.889,19.889,0,0,1,96.054,102.678Zm59.62,33.122a6.624,6.624,0,1,1-6.624-6.624A6.644,6.644,0,0,1,155.673,135.8ZM162.3,33.122a13.249,13.249,0,1,1,13.249-13.249A13.245,13.245,0,0,1,162.3,33.122Z" fill="rgba(0,0,0,0.25)"/>
</svg>
