<svg xmlns="http://www.w3.org/2000/svg" width="76.872" height="76.871" viewBox="0 0 76.872 76.871">
  <g id="play-button" transform="translate(0 -0.002)">
    <g id="_x33_56._Play" transform="translate(0 0.002)">
      <g id="Group_402" data-name="Group 402" transform="translate(0 0)">
        <path id="Path_21459" data-name="Path 21459" d="M71.716,19.222A38.428,38.428,0,1,0,57.649,71.717,38.427,38.427,0,0,0,71.716,19.222ZM53.807,65.059A30.742,30.742,0,1,1,65.06,23.065,30.74,30.74,0,0,1,53.807,65.059ZM52.27,36.875,32.147,25.139c-1.834-1.071-3.313-.215-3.3,1.906l.1,23.295c.009,2.121,1.507,2.984,3.346,1.922L52.262,40.733C54.1,39.673,54.1,37.946,52.27,36.875Z" transform="translate(0 -0.002)" fill="#fff"/>
      </g>
    </g>
  </g>
</svg>
