<svg xmlns="http://www.w3.org/2000/svg" width="724" height="74.954" viewBox="0 0 724 74.954">
  <g id="Union_10" data-name="Union 10" transform="translate(-3342 3045)" fill="#405C6F">
    <path d="M 3706.000244140625 -2972.167724609375 L 3669.754638671875 -3008.413818359375 L 3669.3154296875 -3008.853271484375 L 3668.694091796875 -3008.853271484375 L 3343.499755859375 -3008.853271484375 L 3343.499755859375 -3043.387939453125 L 3705.489990234375 -3043.387939453125 L 3706.1123046875 -3043.387939453125 L 4064.500244140625 -3043.387939453125 L 4064.500244140625 -3008.853271484375 L 3743.30615234375 -3008.853271484375 L 3742.684814453125 -3008.853271484375 L 3742.24560546875 -3008.413818359375 L 3706.000244140625 -2972.167724609375 Z" stroke="none"/>
    <path d="M 3706.000244140625 -2974.2890625 L 3741.184814453125 -3009.474609375 L 3742.0634765625 -3010.353271484375 L 3743.30615234375 -3010.353271484375 L 4063.000244140625 -3010.353271484375 L 4063.000244140625 -3041.887939453125 L 3706.1123046875 -3041.887939453125 L 3704.867431640625 -3041.887939453125 L 3344.999755859375 -3041.887939453125 L 3344.999755859375 -3010.353271484375 L 3668.694091796875 -3010.353271484375 L 3669.936767578125 -3010.353271484375 L 3670.8154296875 -3009.474609375 L 3706.000244140625 -2974.2890625 M 3706.000244140625 -2970.04638671875 L 3668.694091796875 -3007.353271484375 L 3341.999755859375 -3007.353271484375 L 3341.999755859375 -3044.887939453125 L 3705.887939453125 -3044.887939453125 L 3706.000244140625 -3045.000244140625 L 3706.1123046875 -3044.887939453125 L 4066.000244140625 -3044.887939453125 L 4066.000244140625 -3007.353271484375 L 3743.30615234375 -3007.353271484375 L 3706.000244140625 -2970.04638671875 Z" stroke="none" fill="#405C6F"/>
  </g>
</svg>
