<svg xmlns="http://www.w3.org/2000/svg" width="122.782" height="97.379" viewBox="0 0 122.782 97.379">
  <g id="video-player" transform="translate(0 -6)" opacity="0.318">
    <path id="Path_21696" data-name="Path 21696" d="M50.54,36.149,27.254,21.33A2.116,2.116,0,0,0,24,23.117V52.754a2.118,2.118,0,0,0,3.254,1.787L50.54,39.722a2.119,2.119,0,0,0,0-3.573ZM28.234,48.9V26.972L45.459,37.935Z" transform="translate(26.806 16.754)" fill="#fff"/>
    <path id="Path_21697" data-name="Path 21697" d="M120.665,6H2.117A2.116,2.116,0,0,0,0,8.117v93.145a2.116,2.116,0,0,0,2.117,2.117H120.665a2.116,2.116,0,0,0,2.117-2.117V8.117A2.116,2.116,0,0,0,120.665,6Zm-99.5,46.573H4.234V33.52H21.169ZM4.234,56.806H21.169V75.859H4.234ZM25.4,77.976V10.234H97.379V99.145H25.4Zm93.145-25.4H101.613V33.52h16.935Zm-16.935,4.234h16.935V75.859H101.613Zm16.935-46.573V29.286H101.613V10.234Zm-114.314,0H21.169V29.286H4.234Zm0,88.911V80.093H21.169V99.145Zm114.314,0H101.613V80.093h16.935Z" transform="translate(0 0)" fill="#fff"/>
  </g>
</svg>
