<svg xmlns="http://www.w3.org/2000/svg" width="45" height="45" viewBox="0 0 45 45">
  <g id="Group_670" data-name="Group 670" transform="translate(-986 -371)">
    <g id="Group_668" data-name="Group 668" transform="translate(72 41)">
      <g id="Ellipse_29" data-name="Ellipse 29" transform="translate(914 330)" fill="none" stroke="#fff" stroke-width="3">
        <circle cx="22.5" cy="22.5" r="22.5" stroke="none"/>
        <circle cx="22.5" cy="22.5" r="21" fill="none"/>
      </g>
    </g>
    <g id="Group_669" data-name="Group 669" transform="translate(997.266 379.933)">
      <path id="Path_21693" data-name="Path 21693" d="M18.794,19.5H17.335l.007-.853a.693.693,0,0,1,.683-.69h.091a.7.7,0,0,1,.7.69ZM13.306,17.68a.625.625,0,0,0-.671.56v4.127a.685.685,0,0,0,1.347,0V18.24a.632.632,0,0,0-.677-.56Zm8.912-2.311v7.857a3.547,3.547,0,0,1-3.633,3.437H3.639A3.552,3.552,0,0,1,0,23.227V15.37a3.541,3.541,0,0,1,3.639-3.424H18.585a3.536,3.536,0,0,1,3.633,3.424ZM4.635,24.086v-8.28H6.491v-1.23L1.55,14.57v1.211H3.093v8.307H4.635Zm5.553-7.044H8.645v4.414a8.625,8.625,0,0,1,0,1.081c-.13.339-.69.7-.911.039A8.426,8.426,0,0,1,7.727,21.5V17.043H6.183L6.19,21.43c0,.664-.013,1.172.006,1.393.032.4.02.872.391,1.145a1.877,1.877,0,0,0,2.363-.794v.911h1.237V17.043Zm4.941,5.064V18.416c0-1.393-1.048-2.24-2.474-1.107l.007-2.734h-1.55v9.459l1.263-.026.123-.586c1.616,1.485,2.631.469,2.631-1.315Zm4.837-.494-1.159.013v.808a.636.636,0,0,1-.638.625h-.221a.63.63,0,0,1-.631-.625V20.715h2.649v-1a17.677,17.677,0,0,0-.078-1.869c-.2-1.321-2.044-1.523-2.982-.853a1.682,1.682,0,0,0-.651.872,4.961,4.961,0,0,0-.2,1.562v2.194c.006,3.645,4.425,3.124,3.906-.013ZM14.022,9.7a1.027,1.027,0,0,0,1.009.651.967.967,0,0,0,.592-.2,1.488,1.488,0,0,0,.436-.553l-.039.612h1.725V2.884H16.391v5.7a.563.563,0,0,1-.573.56.571.571,0,0,1-.567-.56v-5.7H13.845V7.825c0,.625.013,1.048.026,1.263a2.577,2.577,0,0,0,.151.611ZM8.808,5.56a6.055,6.055,0,0,1,.176-1.646,1.752,1.752,0,0,1,1.8-1.308,2.283,2.283,0,0,1,1.029.228,1.764,1.764,0,0,1,.651.605,2.061,2.061,0,0,1,.326.763,6,6,0,0,1,.084,1.191V7.254a8.657,8.657,0,0,1-.084,1.5,2.2,2.2,0,0,1-.332.885,1.557,1.557,0,0,1-.664.605,1.945,1.945,0,0,1-.938.2,2.628,2.628,0,0,1-.99-.169,1.353,1.353,0,0,1-.638-.507A2.168,2.168,0,0,1,8.9,8.955a7.943,7.943,0,0,1-.1-1.452V5.56Zm1.347,2.909a.686.686,0,1,0,1.366,0v-3.9a.686.686,0,1,0-1.366,0ZM5.384,10.441H7.012l.007-5.618L8.933.012H7.161L6.14,3.58,5.1,0H3.346L5.384,4.824v5.617Zm0,0" fill="#fff"/>
    </g>
  </g>
</svg>
